HIERARCHY
ROOT Hips
{
	OFFSET 0.00000 0.00000 0.00000
	CHANNELS 6 Xposition Yposition Zposition Zrotation Yrotation Xrotation 
	JOINT LHipJoint
	{
		OFFSET 0 0 0
		CHANNELS 3 Zrotation Yrotation Xrotation
		JOINT LeftHip
		{
			OFFSET 1.28858 -1.83292 1.03970
			CHANNELS 3 Zrotation Yrotation Xrotation
			JOINT LeftKnee
			{
				OFFSET 2.47846 -6.80952 0.00000
				CHANNELS 3 Zrotation Yrotation Xrotation
				JOINT LeftAnkle
				{
					OFFSET 2.75274 -7.56311 0.00000
					CHANNELS 3 Zrotation Yrotation Xrotation
					JOINT LeftToe
					{
						OFFSET 0.12848 -0.35301 1.68223
						CHANNELS 3 Zrotation Yrotation Xrotation
						End Site
						{
							OFFSET 0.00000 -0.00000 0.87311
						}
					}
				}
			}
		}
	}
	JOINT RHipJoint
	{
		OFFSET 0 0 0
		CHANNELS 3 Zrotation Yrotation Xrotation
		JOINT RightHip
		{
			OFFSET -1.31183 -1.83292 1.03970
			CHANNELS 3 Zrotation Yrotation Xrotation
			JOINT RightKnee
			{
				OFFSET -2.44740 -6.72417 0.00000
				CHANNELS 3 Zrotation Yrotation Xrotation
				JOINT RightAnkle
				{
					OFFSET -2.67343 -7.34519 0.00000
					CHANNELS 3 Zrotation Yrotation Xrotation
					JOINT RightToe
					{
						OFFSET -0.16914 -0.46471 1.77626
						CHANNELS 3 Zrotation Yrotation Xrotation
						End Site
						{
							OFFSET -0.00000 -0.00000 0.92777
						}
					}
				}
			}
		}
	}
	JOINT lowerback
	{
		OFFSET 0 0 0
		CHANNELS 3 Zrotation Yrotation Xrotation
		JOINT Chest
		{
			OFFSET 0.01249 2.14252 0.03842
			CHANNELS 3 Zrotation Yrotation Xrotation
			JOINT Chest2
			{
				OFFSET -0.02957 2.14199 -0.03751
				CHANNELS 3 Zrotation Yrotation Xrotation
				JOINT lowerneck
				{
					OFFSET 0 0 0
					CHANNELS 3 Zrotation Yrotation Xrotation
					JOINT Neck
					{
						OFFSET -0.01678 1.65709 -0.05476
						CHANNELS 3 Zrotation Yrotation Xrotation
						JOINT Head
						{
							OFFSET 0.07912 1.58331 -0.11843
							CHANNELS 3 Zrotation Yrotation Xrotation
							End Site
							{
								OFFSET 0.03298 1.73940 -0.04271
							}
						}
					}
				}
				JOINT LeftCollar
				{
					OFFSET 0 0 0
					CHANNELS 3 Zrotation Yrotation Xrotation
					JOINT LeftShoulder
					{
						OFFSET 3.39556 1.16496 0.08673
CHANNELS 3 Zrotation Xrotation Yrotation
						JOINT LeftElbow
						{
OFFSET 0 -5.239100 -0.000000
CHANNELS 3 Zrotation Xrotation Yrotation
							JOINT LeftWrist
							{
OFFSET 0 -3.314670 0.000000
CHANNELS 3 Zrotation Xrotation Yrotation
								JOINT lhand
								{
									OFFSET 0 0 0
CHANNELS 3 Zrotation Xrotation Yrotation
									JOINT LFingers
									{
OFFSET 0 -0.965900 0.000000
CHANNELS 3 Zrotation Xrotation Yrotation
										End Site
										{
OFFSET 0 -0.778730 0.000000
										}
									}
								}
								JOINT LThumb
								{
OFFSET 0 0.000000 0.000000
CHANNELS 3 Zrotation Xrotation Yrotation
									End Site
									{
OFFSET 0 -0.790620 0.790620
									}
								}
							}
						}
					}
				}
				JOINT RightCollar
				{
					OFFSET 0 0 0
					CHANNELS 3 Zrotation Yrotation Xrotation
					JOINT RightShoulder
					{
						OFFSET -3.27193 1.31331 0.33940
CHANNELS 3 Zrotation Xrotation Yrotation
						JOINT RightElbow
						{
OFFSET 0 -5.302520 0.000000
CHANNELS 3 Zrotation Xrotation Yrotation
							JOINT RightWrist
							{
OFFSET 0 -3.678750 0.000000
CHANNELS 3 Zrotation Xrotation Yrotation
								JOINT rhand
								{
									OFFSET 0 0 0
CHANNELS 3 Zrotation Xrotation Yrotation
									JOINT RFingers
									{
OFFSET 0 -0.594810 0.000000
CHANNELS 3 Zrotation Xrotation Yrotation
										End Site
										{
OFFSET 0 -0.479550 0.000000
										}
									}
								}
								JOINT RThumb
								{
OFFSET 0 0.000000 0.000000
CHANNELS 3 Zrotation Xrotation Yrotation
									End Site
									{
OFFSET 0 -0.486870 0.486870
									}
								}
							}
						}
					}
				}
			}
		}
	}
}
MOTION
Frames: 8
Frame Time: 0.008333333333333333
6.977205 3.250147 0.863527 -63.206677 18.770151 -73.402905 0.000000 0.000000 0.000000 -19.877562 20.918855 -89.670563 36.105331 12.018766 144.201381 0.105299 -11.738419 18.075734 0.466216 -4.356278 -12.085176 0.000000 0.000000 0.000000 -0.563490 4.915029 -48.407331 -23.656042 -19.673550 100.746434 -1.655087 -1.659049 -24.961171 -0.000556 -0.074330 0.204186 0.730044 -2.165189 22.204148 4.379531 -2.139679 12.241525 4.732847 -1.060749 1.162524 -6.370167 -5.420689 3.520487 10.720559 -7.434797 -0.796500 4.748761 -3.832407 -0.174239 0.000000 0.000000 0.000000 66.839251 -18.519074 -38.189225 35.368358 -45.071184 15.074314 24.487772 -16.828781 26.010971 0.000000 0.000000 0.000000 -7.125000 0.000000 0.000000 -3.205558 1.818179 -3.107293 0.000000 0.000000 0.000000 -38.715172 17.980145 -14.702397 -8.690908 -14.666028 -1.121002 1.005783 23.587696 21.676290 0.000000 0.000000 0.000000 7.125000 0.000000 0.000000 28.916526 49.294181 -3.313511
7.104007 3.183451 0.789447 -63.532433 17.151408 -75.073312 0.000000 0.000000 0.000000 -18.640390 23.642457 -86.519133 36.008161 12.149529 143.736989 -0.150623 -13.285259 16.943517 0.850664 -5.859002 -16.382514 0.000000 0.000000 0.000000 0.533164 4.656580 -51.964242 -22.386040 -19.856673 96.993721 -1.590924 -2.283289 -24.746498 -0.002777 0.327539 -0.899938 0.470076 -2.566282 22.310713 4.630761 -2.729397 12.463253 5.277133 -1.401584 1.440174 -6.431244 -5.198710 3.418092 10.907141 -7.198203 0.070731 4.808802 -3.702981 0.113497 0.000000 0.000000 0.000000 67.397632 -18.876029 -38.625317 33.884870 -43.994980 14.034467 23.382206 -17.096442 26.373207 0.000000 0.000000 0.000000 -7.125000 0.000000 0.000000 -3.916167 1.660338 -3.810666 0.000000 0.000000 0.000000 -37.714815 18.571291 -12.893731 -9.397880 -15.790849 -1.307543 0.641719 20.921320 21.405110 0.000000 0.000000 0.000000 7.125000 0.000000 0.000000 28.442291 49.109867 -3.112064
7.229745 3.104649 0.716061 -63.651057 15.610304 -76.782250 0.000000 0.000000 0.000000 -17.204354 28.284093 -82.872135 35.984500 12.181000 143.624600 -0.610131 -16.189824 15.326150 1.234401 -7.033806 -19.820447 0.000000 0.000000 0.000000 1.315801 4.477952 -55.281950 -21.043366 -19.968248 93.052769 -1.520889 -2.658666 -24.385054 -0.006416 0.515185 -1.415620 0.134577 -2.964528 22.549381 4.808943 -3.330966 12.694700 5.793607 -1.754513 1.679009 -6.405857 -4.959543 3.389344 11.344290 -6.931518 0.781735 4.591773 -3.558880 0.308308 0.000000 0.000000 0.000000 67.849410 -19.058766 -39.140446 32.481524 -42.924405 13.068814 21.859193 -17.059040 26.859121 0.000000 0.000000 0.000000 -7.125000 0.000000 0.000000 -4.887606 1.450813 -4.780754 0.000000 0.000000 0.000000 -36.990695 19.201630 -10.893025 -10.251558 -17.130539 -1.549528 -0.589250 17.657869 21.607281 0.000000 0.000000 0.000000 7.125000 0.000000 0.000000 27.450018 49.471205 -3.244477
7.357334 3.017858 0.634833 -63.574170 14.292097 -78.505205 0.000000 0.000000 0.000000 -15.561313 34.786734 -78.621033 35.943575 12.235136 143.431101 -1.357014 -20.548587 12.511476 1.963974 -8.789538 -25.139786 0.000000 0.000000 0.000000 1.556441 4.436973 -58.321102 -19.629525 -19.996537 88.916812 -1.479875 -2.654738 -24.069742 -0.002929 0.346159 -0.951035 -0.404358 -3.341761 22.863476 4.889773 -3.949661 12.925599 6.328275 -2.129623 1.904145 -6.287853 -4.722624 3.426660 11.514390 -6.657823 1.370820 4.479762 -3.412161 0.442517 0.000000 0.000000 0.000000 68.114539 -19.070592 -39.635881 31.153647 -41.861827 12.172306 20.100698 -16.883406 27.397187 0.000000 0.000000 0.000000 -7.125000 0.000000 0.000000 -5.998240 1.223875 -5.901475 0.000000 0.000000 0.000000 -36.566004 19.799446 -8.981376 -11.203370 -18.599262 -1.840343 -2.504782 14.438514 22.028415 0.000000 0.000000 0.000000 7.125000 0.000000 0.000000 25.944898 50.136363 -3.491798
7.484320 2.925974 0.531149 -63.319955 13.344593 -80.288175 0.000000 0.000000 0.000000 -13.457133 41.776538 -73.775731 35.784261 12.441346 142.687052 -2.098090 -24.628363 9.118696 2.693010 -10.167721 -29.533681 0.000000 0.000000 0.000000 0.932636 4.682997 -60.897607 -18.128001 -19.908587 84.517133 -1.465991 -2.354024 -23.827472 -0.001968 -0.171626 0.471524 -1.357060 -3.651904 23.322537 4.882729 -4.568020 13.140408 7.014880 -2.533493 2.092158 -6.145367 -4.515245 3.492905 11.068053 -6.405903 1.868242 4.793488 -3.283862 0.602834 0.000000 0.000000 0.000000 68.010629 -18.902231 -39.950314 29.869333 -40.778105 11.325282 18.385344 -16.568696 27.828682 0.000000 0.000000 0.000000 -7.125000 0.000000 0.000000 -7.061537 1.086413 -6.980392 0.000000 0.000000 0.000000 -36.561776 20.284025 -7.446514 -12.192603 -20.090908 -2.169413 -4.498760 11.955393 22.201402 0.000000 0.000000 0.000000 7.125000 0.000000 0.000000 24.206838 50.602229 -3.520059
7.606462 2.834398 0.405377 -63.086657 12.668943 -82.117463 0.000000 0.000000 0.000000 -11.279789 46.729748 -69.097840 35.519544 12.772239 141.475949 -2.536975 -27.224885 5.794761 3.427921 -11.345699 -33.468879 0.000000 0.000000 0.000000 -0.466278 5.229409 -63.024932 -16.559365 -19.704206 79.889462 -1.460744 -2.112053 -23.680898 -0.016131 -0.791287 2.174870 -2.709344 -3.906625 23.828401 4.883355 -5.207321 13.330536 7.950663 -2.983795 2.306824 -5.938032 -4.353834 3.647224 10.822034 -6.212030 2.263001 4.664197 -3.183261 0.667633 0.000000 0.000000 0.000000 67.541489 -18.575546 -40.034762 28.601428 -39.660122 10.506811 16.947669 -16.075921 28.053099 0.000000 0.000000 0.000000 -7.125000 0.000000 0.000000 -7.933669 1.101160 -7.855976 0.000000 0.000000 0.000000 -36.968724 20.584367 -6.331590 -13.141342 -21.491743 -2.506341 -5.927298 10.386963 21.966411 0.000000 0.000000 0.000000 7.125000 0.000000 0.000000 22.762265 50.610802 -3.296420
7.718450 2.746464 0.263222 -62.982869 12.143366 -83.959843 0.000000 0.000000 0.000000 -9.838290 48.384588 -65.450337 35.176336 13.181447 139.946837 -2.563710 -27.878804 3.161874 4.147354 -12.349224 -36.985731 0.000000 0.000000 0.000000 -2.620823 6.123232 -64.714177 -14.947769 -19.371108 75.075622 -1.447834 -2.212722 -23.624025 -0.046853 -1.385806 3.811044 -4.417314 -4.121086 24.305612 4.952572 -5.887081 13.499286 9.177332 -3.497928 2.615800 -5.812886 -4.232899 3.839175 10.480285 -6.072576 2.635459 4.517910 -3.111985 0.723658 0.000000 0.000000 0.000000 66.743749 -18.133027 -39.855991 27.277624 -38.440285 9.672138 15.909565 -15.367119 28.048834 0.000000 0.000000 0.000000 -7.125000 0.000000 0.000000 -8.546302 1.273020 -8.449438 0.000000 0.000000 0.000000 -37.780164 20.612674 -5.562731 -14.020425 -22.762858 -2.836693 -6.555087 9.708081 21.375049 0.000000 0.000000 0.000000 7.125000 0.000000 0.000000 21.882839 50.162211 -2.907622
7.815751 2.671591 0.118467 -63.117448 11.555705 -85.744548 0.000000 0.000000 0.000000 -8.744471 48.295514 -62.665674 34.803524 13.600891 138.336795 -2.408801 -27.695319 0.988483 4.838339 -13.196712 -40.114214 0.000000 0.000000 0.000000 -5.492926 7.412274 -65.998305 -13.334402 -18.894508 70.155908 -1.434935 -2.685050 -23.735814 -0.097051 -1.998491 5.501820 -6.268046 -4.356872 24.689776 5.082304 -6.652506 13.598979 10.568286 -4.089593 3.004117 -5.760686 -4.143424 4.044959 10.079769 -5.985491 3.133481 4.364368 -3.067108 0.823978 0.000000 0.000000 0.000000 65.782275 -17.629334 -39.514330 25.782894 -36.990138 8.758089 15.306433 -14.467251 27.862313 0.000000 0.000000 0.000000 -7.125000 0.000000 0.000000 -8.887145 1.554256 -8.749509 0.000000 0.000000 0.000000 -38.844102 20.340869 -5.028403 -14.834845 -23.914762 -3.159137 -6.426131 9.815233 20.554212 0.000000 0.000000 0.000000 7.125000 0.000000 0.000000 21.606861 49.381249 -2.436697
